<svg width="30" height="22" viewBox="0 0 30 22" fill="none" xmlns="http://www.w3.org/2000/svg">
<path d="M5.26748 0H24.734C25.1653 0 25.3379 0.574961 24.9869 0.83153L15.5749 7.67233C15.2298 7.92272 14.7717 7.92272 14.4266 7.67233L5.0176 0.83153C4.66361 0.574961 4.83912 0 5.26748 0Z" fill="#0E525B"/>
<path d="M30 4.16041V19.1558C30 20.7261 28.7744 21.9966 27.2662 21.9966H2.73674C1.22558 21.9966 0 20.723 0 19.1527V4.16041C0 3.604 0.603867 3.27942 1.03818 3.60091L12.2529 11.8235C13.0739 12.4263 14.0377 12.7261 15.0015 12.7261C15.9653 12.7261 16.9261 12.4263 17.7471 11.8235L28.9618 3.60091C29.3991 3.28251 30 3.60709 30 4.16041Z" fill="#0E525B"/>
</svg>
