<svg width="27" height="9" viewBox="0 0 27 9" fill="none" xmlns="http://www.w3.org/2000/svg">
<path d="M26.888 3.4417L25.5033 1.19119C25.5672 1.1189 25.6158 1.03446 25.6462 0.942927C25.6767 0.851399 25.6883 0.754668 25.6805 0.658528C25.6727 0.562389 25.6455 0.468819 25.6006 0.383425C25.5558 0.298031 25.4942 0.222571 25.4194 0.161563C25.3447 0.100556 25.2585 0.0552572 25.1658 0.0283818C25.0732 0.00150636 24.9761 -0.0063932 24.8803 0.00515634C24.7845 0.0167059 24.6921 0.0474668 24.6085 0.0955964C24.5249 0.143726 24.4519 0.208234 24.3938 0.285255C22.6135 2.46983 18.23 3.94914 13.4968 3.94914C8.76354 3.94914 4.38006 2.46983 2.60259 0.270921C2.54348 0.19713 2.47042 0.135703 2.38757 0.090149C2.30472 0.0445946 2.21371 0.0158045 2.11974 0.00542209C2.02577 -0.00496031 1.93067 0.00326816 1.83987 0.0296384C1.74908 0.0560086 1.66437 0.100004 1.59058 0.159112C1.51679 0.218221 1.45536 0.291284 1.40981 0.374131C1.36425 0.456979 1.33546 0.547988 1.32508 0.641962C1.3147 0.735936 1.32293 0.831035 1.3493 0.921829C1.37567 1.01262 1.41966 1.09733 1.47877 1.17112L0.105528 3.4417C0.0563121 3.52206 0.0234245 3.61133 0.00874746 3.70441C-0.00592963 3.79749 -0.00210807 3.89255 0.0199934 3.98415C0.0420949 4.07575 0.0820424 4.1621 0.13755 4.23824C0.193058 4.31439 0.263036 4.37884 0.34348 4.42791C0.423443 4.47718 0.512344 4.51019 0.605087 4.52504C0.69783 4.53989 0.792592 4.5363 0.883943 4.51446C0.975293 4.49262 1.06144 4.45297 1.13743 4.39778C1.21343 4.34258 1.27779 4.27294 1.32682 4.19283L2.54239 2.22041C3.24071 2.77951 4.00406 3.25216 4.81583 3.62805L3.68627 5.89289C3.60188 6.06321 3.5886 6.26008 3.64935 6.44019C3.71011 6.6203 3.83992 6.7689 4.01023 6.8533C4.10882 6.90324 4.21795 6.9288 4.32846 6.92784C4.46176 6.92844 4.59257 6.89169 4.70607 6.82177C4.81957 6.75184 4.91122 6.65154 4.97064 6.53221L6.1432 4.17276C7.00163 4.48199 7.88116 4.72918 8.77501 4.91242L8.27043 7.36074C8.25116 7.45281 8.25028 7.54778 8.26783 7.64019C8.28538 7.7326 8.32102 7.82064 8.37271 7.89923C8.42439 7.97782 8.4911 8.04543 8.56899 8.09815C8.64689 8.15088 8.73444 8.18769 8.82661 8.20647C8.87452 8.21784 8.92358 8.22362 8.97282 8.22368C9.13756 8.22305 9.29705 8.1657 9.42445 8.06127C9.55186 7.95684 9.6394 7.8117 9.67234 7.6503L10.1913 5.15037C11.0467 5.27022 11.908 5.34296 12.7715 5.36825V7.92552C12.7715 8.11561 12.847 8.29791 12.9814 8.43232C13.1158 8.56673 13.2981 8.64224 13.4882 8.64224C13.6783 8.64224 13.8606 8.56673 13.995 8.43232C14.1294 8.29791 14.2049 8.11561 14.2049 7.92552V5.36825C15.0683 5.34296 15.9297 5.27022 16.7851 5.15037L17.304 7.6503C17.337 7.8117 17.4245 7.95684 17.5519 8.06127C17.6793 8.1657 17.8388 8.22305 18.0035 8.22368C18.0528 8.22362 18.1018 8.21784 18.1497 8.20647C18.2419 8.18769 18.3295 8.15088 18.4074 8.09815C18.4853 8.04543 18.552 7.97782 18.6036 7.89923C18.6553 7.82064 18.691 7.7326 18.7085 7.64019C18.7261 7.54778 18.7252 7.45281 18.7059 7.36074L18.2013 4.91242C19.0952 4.72918 19.9747 4.48199 20.8331 4.17276L22.0057 6.53221C22.0668 6.65512 22.162 6.75781 22.28 6.82798C22.398 6.89815 22.5337 6.93282 22.6708 6.92784C22.7813 6.9288 22.8905 6.90324 22.989 6.8533C23.1594 6.7689 23.2892 6.6203 23.3499 6.44019C23.4107 6.26008 23.3974 6.06321 23.313 5.89289L22.1835 3.62805C22.9952 3.25216 23.7586 2.77951 24.4569 2.22041L25.6725 4.19283C25.7218 4.27302 25.7864 4.34271 25.8627 4.39792C25.9389 4.45314 26.0253 4.49279 26.1169 4.51462C26.2085 4.53645 26.3034 4.54003 26.3964 4.52515C26.4894 4.51027 26.5785 4.47723 26.6587 4.42791C26.7389 4.37859 26.8086 4.31396 26.8638 4.23771C26.919 4.16145 26.9586 4.07507 26.9805 3.98349C27.0023 3.89192 27.0059 3.79694 26.991 3.70397C26.9761 3.61101 26.9431 3.52189 26.8938 3.4417H26.888Z" fill="#0E525B"/>
</svg>
