<svg width="23" height="29" viewBox="0 0 23 29" fill="none" xmlns="http://www.w3.org/2000/svg">
<path d="M18.4643 10.0293H4.53574C2.02957 10.0293 0 12.0284 0 14.4969V24.5293C0 26.9978 2.02957 28.9969 4.53574 28.9969H18.4616C20.9678 28.9969 22.9973 26.9978 22.9973 24.5293V14.4969C23 12.0284 20.9704 10.0293 18.4643 10.0293ZM13.3475 22.1504C13.3475 24.4976 9.6525 24.4924 9.6525 22.1504V18.0125C9.6525 15.6653 13.3475 15.6705 13.3475 18.0125V22.1504Z" fill="#0E525B"/>
<path d="M19.5245 8.81675C19.4469 5.36714 17.6743 1.94917 14.3354 0.559297C11.0501 -0.806836 7.42474 0.430068 5.33091 3.17816C3.11659 6.08449 2.91577 10.1882 4.62136 13.3767C6.23591 16.3938 9.64977 16.4149 13.0824 15.6949C17.1281 14.843 19.4388 12.6541 19.5245 8.81675C19.5754 6.47217 15.8804 6.47481 15.8295 8.81675C15.776 11.222 14.2605 12.2294 11.4999 12.2294C8.78492 12.2294 7.1677 11.222 7.17037 8.81675C7.17573 6.41152 8.77689 3.61595 11.4999 3.61595C14.2605 3.61595 15.776 6.41152 15.8295 8.81675C15.8804 11.1561 19.5754 11.164 19.5245 8.81675Z" fill="#0E525B"/>
</svg>
