<svg width="26" height="26" viewBox="0 0 26 26" fill="none" xmlns="http://www.w3.org/2000/svg">
<path d="M25.7772 20.3223C24.6477 18.2993 20.6757 16.4072 18.4108 16.3646C16.146 16.3247 16.2171 19.3578 16.22 19.3635C16.22 19.3635 13.4629 18.6266 10.4185 15.5793C7.37123 12.532 6.63431 9.77779 6.63431 9.77779C6.64 9.78064 9.67589 9.85177 9.63321 7.58694C9.59338 5.32211 7.69844 1.35013 5.67546 0.220557C3.65532 -0.906167 -0.30813 2.4484 0.0190753 6.54273C0.34628 10.6399 2.89563 15.6959 6.60017 19.4005C10.3047 23.105 15.3607 25.6572 19.4579 25.9816C23.5522 26.3088 26.9068 22.3453 25.7772 20.3223Z" fill="#0E525B"/>
</svg>
